<?xml version="1.0" encoding="UTF-8"?>
<svg id="Capa_2" data-name="Capa 2" xmlns="http://www.w3.org/2000/svg" xmlns:xlink="http://www.w3.org/1999/xlink" viewBox="0 0 55.02 42.76">
  <defs>
    <style>
      .cls-1 {
        fill: none;
      }

      .cls-2 {
        clip-path: url(#clippath-1);
      }

      .cls-3 {
        fill: #fff;
      }

      .cls-4 {
        fill: #e2e1e4;
      }

      .cls-5 {
        clip-path: url(#clippath);
      }
    </style>
    <clipPath id="clippath">
      <rect class="cls-1" y="35.28" width="55.02" height="7.48"/>
    </clipPath>
    <clipPath id="clippath-1">
      <rect class="cls-1" y="35.28" width="55.02" height="7.48"/>
    </clipPath>
  </defs>
  <g id="Capa_1-2" data-name="Capa 1">
    <g>
      <path class="cls-4" d="M42.98,28.95V1.41c0-.78-.63-1.41-1.4-1.41h-25.52s-2.51,0-2.51,0c-.78,0-1.4.63-1.41,1.4v25.03s0,2.51,0,2.51c0,.78.63,1.4,1.41,1.4h15.56s0-12.18,0-12.18h-4.01v-4.19h4.02v-4.56c0-2.73,2.48-4.57,4.47-4.57h4.5v3.82h-2.07c-1.03,0-2.39.83-2.39,1.84v3.46h4.05v4.2h-4.05s0,12.18,0,12.18h5.44s2.51,0,2.51,0c.78,0,1.41-.63,1.41-1.41"/>
      <g class="cls-5">
        <path class="cls-3" d="M3.74,37.2c-.11-.12-.25-.19-.44-.19-.29,0-.54.17-.75.51-.21.34-.32.68-.32,1.02,0,.25.05.44.16.57.11.13.25.2.41.2.34,0,.61-.2.8-.6.19-.4.29-.76.29-1.09,0-.16-.05-.3-.16-.43M.69,40.21C.23,39.67,0,39.06,0,38.36c0-.83.28-1.53.84-2.11.62-.64,1.45-.97,2.5-.97.9,0,1.62.23,2.14.69.49.43.73.99.73,1.68,0,.58-.17,1.07-.52,1.49-.35.41-.73.62-1.17.62-.25,0-.44-.06-.56-.18s-.18-.27-.18-.44v-.09s.03-.1.03-.1c-.13.29-.3.5-.51.62-.21.12-.42.18-.64.18-.31,0-.57-.11-.76-.34-.19-.23-.29-.52-.29-.87,0-.51.17-.95.5-1.34.33-.39.69-.58,1.07-.58.26,0,.47.08.64.22.17.15.26.33.27.54l.19-.64h.56l-.51,1.67c-.04.13-.07.23-.08.31l-.03.21c0,.11.03.2.11.25l.24.08c.29,0,.55-.15.78-.45.23-.3.34-.7.34-1.19,0-.59-.2-1.05-.62-1.39-.41-.34-.97-.51-1.66-.51-.97,0-1.7.28-2.22.85-.44.48-.66,1.08-.66,1.81,0,.64.21,1.17.63,1.6.49.51,1.18.77,2.09.77.42,0,.81-.07,1.18-.2.36-.13.7-.31,1-.54l.25.34c-.23.2-.57.39-1.02.57-.46.18-.96.27-1.5.27-1.06,0-1.88-.33-2.46-.99"/>
        <path class="cls-3" d="M10.27,37.17c.29.22.46.61.52,1.16h-.67c-.04-.25-.13-.46-.28-.63-.14-.17-.38-.25-.7-.25-.44,0-.75.21-.94.64-.12.28-.18.62-.18,1.02s.09.75.26,1.03c.17.28.45.42.82.42.29,0,.51-.09.68-.26.17-.17.28-.41.34-.71h.67c-.08.54-.27.94-.57,1.19-.31.25-.7.38-1.17.38-.53,0-.96-.19-1.28-.59-.32-.39-.48-.88-.48-1.46,0-.72.17-1.27.52-1.67.35-.4.79-.6,1.33-.6.46,0,.83.11,1.12.34"/>
        <path class="cls-3" d="M11.48,35.42h.68v2.09c.16-.21.31-.35.44-.43.22-.15.5-.22.83-.22.59,0,.99.21,1.21.62.12.23.17.54.17.94v2.62h-.7v-2.57c0-.3-.04-.52-.11-.66-.12-.22-.36-.34-.7-.34-.29,0-.54.1-.78.29-.23.2-.35.57-.35,1.11v2.17h-.68v-5.62Z"/>
        <path class="cls-3" d="M16.56,40.42c.15.11.32.17.52.17.24,0,.48-.06.7-.17.38-.19.57-.49.57-.91v-.55c-.08.05-.19.1-.32.13-.13.03-.26.06-.39.08l-.41.05c-.25.03-.44.09-.56.16-.21.12-.32.31-.32.57,0,.2.07.35.22.47M18.01,38.56c.16-.02.26-.09.32-.2.03-.06.04-.15.04-.26,0-.23-.08-.4-.25-.51-.16-.1-.4-.16-.71-.16-.36,0-.61.1-.76.29-.08.11-.14.27-.16.48h-.64c.01-.51.18-.86.49-1.06.31-.2.68-.3,1.09-.3.48,0,.87.09,1.17.28.3.18.45.47.45.85v2.35l.04.17.19.07h.1s.12-.02.12-.02v.51c-.11.03-.19.05-.24.06h-.23c-.24.01-.41-.07-.51-.24-.06-.09-.1-.21-.12-.38-.14.18-.34.34-.6.48-.26.13-.55.2-.87.2-.38,0-.69-.12-.93-.34-.24-.23-.36-.52-.36-.86,0-.38.12-.67.36-.88.24-.21.55-.34.93-.39l1.09-.14Z"/>
      </g>
      <rect class="cls-3" x="20.18" y="35.44" width=".68" height="5.6"/>
      <rect class="cls-3" x="21.92" y="35.44" width=".68" height="5.6"/>
      <g class="cls-2">
        <path class="cls-3" d="M26.4,38.67c-.03-.3-.09-.53-.19-.71-.19-.33-.49-.5-.93-.5-.31,0-.57.11-.79.34-.21.23-.33.52-.34.87h2.25ZM26.16,37.07c.27.14.48.31.62.53.14.21.23.45.27.72.04.19.06.49.06.9h-2.97c.01.42.11.75.29,1,.18.25.46.37.84.37.35,0,.64-.12.85-.36.12-.14.2-.29.25-.48h.68c-.02.15-.08.32-.18.5s-.21.33-.34.45c-.21.2-.46.34-.77.41-.16.04-.35.06-.56.06-.5,0-.93-.18-1.28-.55-.35-.37-.53-.89-.53-1.55s.18-1.19.53-1.6c.35-.41.81-.61,1.39-.61.29,0,.57.07.84.2"/>
        <path class="cls-3" d="M27.98,36.95h.65v.58c.19-.24.4-.41.61-.52.22-.11.46-.16.72-.16.58,0,.97.2,1.17.61.11.22.17.54.17.95v2.62h-.7v-2.58c0-.25-.04-.45-.11-.6-.12-.25-.34-.38-.66-.38-.16,0-.3.01-.4.05-.19.06-.35.17-.5.34-.11.14-.19.27-.22.42-.04.15-.05.35-.05.62v2.14h-.69v-4.08Z"/>
        <path class="cls-3" d="M34.67,37.85c-.21-.24-.47-.37-.79-.37-.48,0-.81.23-.99.68-.09.24-.14.56-.14.95,0,.46.09.81.28,1.05.18.24.43.36.75.36.49,0,.84-.22,1.04-.67.11-.25.17-.54.17-.88,0-.5-.1-.88-.31-1.12M34.59,37.12c.13.09.26.22.39.39v-.52h.63v3.72c0,.52-.08.93-.23,1.23-.28.56-.82.83-1.61.83-.44,0-.81-.1-1.11-.3-.3-.19-.47-.5-.5-.92h.7c.03.18.1.32.2.42.16.15.4.23.73.23.52,0,.87-.19,1.03-.56.1-.22.14-.61.13-1.17-.14.21-.3.36-.49.47-.19.1-.45.15-.76.15-.44,0-.83-.16-1.15-.47-.33-.31-.5-.83-.5-1.56,0-.68.17-1.22.5-1.6.33-.39.73-.58,1.21-.58.32,0,.6.08.84.24"/>
        <path class="cls-3" d="M39.43,38.67c-.03-.3-.09-.53-.19-.71-.19-.33-.5-.5-.93-.5-.31,0-.57.11-.79.34-.21.23-.32.52-.34.87h2.25ZM39.19,37.07c.27.14.48.31.62.53.14.21.23.45.27.72.04.19.06.49.06.9h-2.97c.01.42.11.75.29,1,.18.25.46.37.84.37.35,0,.64-.12.85-.36.12-.14.2-.29.25-.48h.68c-.02.15-.08.32-.18.5s-.21.33-.34.45c-.21.2-.46.34-.77.41-.16.04-.35.06-.56.06-.5,0-.93-.18-1.28-.55-.35-.37-.53-.89-.53-1.55s.18-1.19.53-1.6c.35-.41.81-.61,1.39-.61.29,0,.57.07.84.2"/>
        <path class="cls-3" d="M41.03,36.95h.65v.71c.05-.14.19-.3.39-.5.21-.2.45-.29.72-.29h.06s.16.02.16.02v.73h-.11s-.11-.02-.11-.02c-.34,0-.61.11-.8.33-.19.22-.28.48-.28.77v2.35h-.69v-4.08Z"/>
        <path class="cls-3" d="M44.02,39.75c.02.23.08.41.17.53.18.22.48.33.92.33.26,0,.49-.05.68-.17.2-.11.3-.28.3-.51,0-.18-.08-.31-.24-.4-.1-.06-.3-.12-.6-.19l-.55-.14c-.35-.09-.61-.18-.78-.29-.3-.19-.45-.44-.45-.77,0-.39.14-.7.42-.94.28-.24.66-.36,1.14-.36.62,0,1.07.18,1.35.54.17.23.26.48.25.74h-.65c-.01-.15-.07-.29-.17-.42-.16-.18-.44-.27-.84-.27-.27,0-.47.05-.6.15-.14.1-.21.23-.21.39,0,.18.09.32.27.43.1.06.26.12.46.17l.46.11c.5.12.84.24,1.01.35.27.18.4.45.4.83s-.14.68-.42.94c-.28.27-.7.4-1.27.4-.62,0-1.05-.14-1.31-.41-.26-.28-.39-.62-.41-1.02h.66Z"/>
        <path class="cls-3" d="M48.26,40.42c.15.11.32.17.52.17.24,0,.48-.06.7-.17.38-.19.57-.49.57-.91v-.55c-.09.05-.19.1-.32.13-.13.03-.26.06-.39.08l-.42.05c-.25.03-.44.09-.56.16-.21.12-.32.31-.32.57,0,.2.07.35.22.47M49.7,38.56c.16-.02.26-.09.32-.2.03-.06.04-.15.04-.26,0-.23-.08-.4-.25-.51-.17-.1-.4-.16-.71-.16-.36,0-.61.1-.76.29-.08.11-.14.27-.16.48h-.64c.01-.51.17-.86.49-1.06.31-.2.68-.3,1.09-.3.48,0,.87.09,1.17.28.3.18.45.47.45.85v2.35l.04.17.18.07h.1s.12-.02.12-.02v.51c-.11.03-.19.05-.24.06h-.23c-.24.01-.41-.07-.52-.24-.05-.09-.09-.21-.12-.38-.14.18-.34.34-.6.48-.26.13-.55.2-.87.2-.38,0-.69-.12-.93-.34-.24-.23-.36-.52-.36-.86,0-.38.12-.67.36-.88.24-.21.55-.34.93-.39l1.09-.14Z"/>
        <path class="cls-3" d="M52.26,39.75c.02.23.08.41.17.53.18.22.48.33.92.33.26,0,.49-.05.68-.17.2-.11.3-.28.3-.51,0-.18-.08-.31-.24-.4-.1-.06-.3-.12-.6-.19l-.55-.14c-.35-.09-.61-.18-.78-.29-.3-.19-.45-.44-.45-.77,0-.39.14-.7.42-.94.28-.24.66-.36,1.14-.36.62,0,1.07.18,1.35.54.17.23.26.48.25.74h-.65c-.01-.15-.07-.29-.17-.42-.16-.18-.44-.27-.84-.27-.27,0-.47.05-.6.15-.14.1-.21.23-.21.39,0,.18.09.32.27.43.1.06.26.12.46.17l.46.11c.5.12.84.24,1.01.35.27.18.4.45.4.83s-.14.68-.42.94c-.28.27-.7.4-1.27.4-.62,0-1.05-.14-1.31-.41-.26-.28-.39-.62-.41-1.02h.66Z"/>
      </g>
    </g>
  </g>
</svg>