<?xml version="1.0" encoding="UTF-8"?>
<svg id="Capa_2" data-name="Capa 2" xmlns="http://www.w3.org/2000/svg" viewBox="0 0 58.46 42.73">
  <defs>
    <style>
      .cls-1 {
        fill: #fff;
      }

      .cls-2 {
        fill: #e2e1e4;
      }
    </style>
  </defs>
  <g id="Capa_1-2" data-name="Capa 1">
    <g>
      <path class="cls-1" d="M3.48,37.55c-.1-.12-.23-.18-.41-.18-.27,0-.5.16-.7.48-.2.32-.3.64-.3.95,0,.23.05.41.15.53.1.12.23.18.38.18.32,0,.57-.19.75-.56.18-.37.27-.71.27-1.01,0-.15-.05-.28-.15-.39M.64,40.34c-.43-.49-.64-1.07-.64-1.71,0-.77.26-1.43.78-1.96.58-.6,1.35-.9,2.33-.9.84,0,1.51.21,1.99.64.45.4.68.92.68,1.57,0,.54-.16,1-.49,1.38-.32.38-.68.57-1.08.57-.24,0-.41-.06-.52-.17-.11-.11-.17-.25-.17-.41v-.08s.02-.09.02-.09c-.13.27-.28.47-.48.58-.19.11-.39.17-.59.17-.29,0-.53-.11-.71-.32-.18-.21-.27-.48-.27-.81,0-.47.15-.89.46-1.25.31-.36.64-.54.99-.54.24,0,.44.07.6.21.16.14.24.31.25.5l.18-.59h.52l-.47,1.55c-.04.12-.06.22-.08.29l-.03.2c0,.11.03.18.1.23l.22.07c.27,0,.51-.14.73-.42.21-.28.32-.65.32-1.1,0-.55-.19-.98-.57-1.29-.38-.31-.9-.47-1.55-.47-.9,0-1.59.26-2.06.79-.41.45-.61,1.01-.61,1.68,0,.59.19,1.09.58,1.49.45.48,1.1.71,1.94.71.39,0,.76-.06,1.1-.19.34-.13.65-.29.93-.5l.24.32c-.21.19-.53.37-.95.53-.43.16-.89.25-1.4.25-.99,0-1.75-.31-2.28-.93"/>
      <path class="cls-1" d="M9.56,37.52c.27.21.43.57.49,1.07h-.62c-.04-.24-.12-.43-.26-.58-.14-.16-.35-.23-.65-.23-.41,0-.7.2-.87.59-.11.26-.17.58-.17.95s.08.7.24.96c.16.26.41.39.76.39.26,0,.47-.08.63-.24.15-.16.26-.38.32-.66h.62c-.07.5-.25.87-.53,1.11-.28.23-.65.35-1.09.35-.5,0-.89-.18-1.19-.54-.3-.36-.44-.82-.44-1.36,0-.67.16-1.19.49-1.56.32-.37.74-.56,1.24-.56.43,0,.78.11,1.04.31"/>
      <path class="cls-1" d="M10.68,35.89h.64v1.94c.15-.19.29-.33.41-.4.2-.13.46-.2.77-.2.55,0,.92.19,1.12.58.1.21.16.5.16.87v2.44h-.66v-2.39c0-.28-.03-.48-.11-.62-.11-.21-.33-.31-.65-.31-.26,0-.5.09-.72.27-.21.18-.32.53-.32,1.03v2.02h-.64v-5.23Z"/>
      <path class="cls-1" d="M15.41,40.54c.14.11.29.16.48.16.23,0,.44-.05.65-.16.35-.17.53-.45.53-.85v-.51c-.08.05-.18.09-.3.12-.12.03-.24.06-.36.07l-.39.05c-.23.03-.4.08-.52.14-.2.11-.29.29-.29.53,0,.18.07.33.2.43M16.76,38.82c.15-.02.24-.08.29-.19.03-.06.05-.14.05-.25,0-.22-.08-.38-.23-.47-.16-.1-.38-.15-.66-.15-.34,0-.57.09-.71.27-.08.1-.13.25-.15.44h-.59c.01-.47.17-.8.45-.98.29-.18.63-.28,1.02-.28.45,0,.81.09,1.09.26.28.17.42.43.42.79v2.19l.04.16.17.06h.09s.11-.02.11-.02v.47l-.23.05h-.21c-.22.01-.38-.07-.48-.22-.05-.09-.09-.2-.11-.35-.13.17-.32.32-.56.44-.24.13-.51.19-.81.19-.35,0-.64-.11-.86-.32-.22-.21-.34-.48-.34-.8,0-.35.11-.62.33-.82.22-.19.51-.31.87-.36l1.02-.13Z"/>
      <rect class="cls-1" x="18.78" y="35.91" width=".64" height="5.21"/>
      <rect class="cls-1" x="20.4" y="35.91" width=".64" height="5.21"/>
      <path class="cls-1" d="M24.57,38.91c-.03-.28-.09-.5-.18-.66-.17-.31-.46-.46-.87-.46-.29,0-.53.1-.73.32-.2.21-.3.48-.31.81h2.09ZM24.34,37.42c.25.13.44.29.57.49.13.19.21.42.25.67.04.17.06.45.06.84h-2.76c.01.39.1.7.27.93.17.23.43.35.79.35.33,0,.59-.11.79-.33.11-.13.19-.28.23-.44h.63c-.02.14-.07.3-.17.47-.09.17-.2.31-.31.42-.19.19-.43.32-.71.38-.15.04-.33.05-.52.05-.47,0-.87-.17-1.2-.52-.33-.34-.49-.83-.49-1.44s.16-1.11.49-1.49c.33-.38.76-.57,1.29-.57.27,0,.53.06.78.19"/>
      <path class="cls-1" d="M26.03,37.32h.61v.54c.18-.22.37-.38.57-.48.2-.1.43-.14.67-.14.54,0,.9.19,1.09.56.1.21.16.5.16.88v2.44h-.65v-2.39c0-.23-.03-.42-.1-.56-.11-.24-.32-.35-.62-.35-.15,0-.27.01-.37.05-.18.05-.33.16-.46.31-.11.13-.18.26-.21.39-.03.14-.05.33-.05.58v1.99h-.64v-3.8Z"/>
      <path class="cls-1" d="M32.27,38.16c-.19-.23-.44-.34-.74-.34-.45,0-.75.21-.92.63-.09.23-.13.52-.13.88,0,.43.09.75.26.98.17.22.4.34.7.34.46,0,.78-.21.96-.62.1-.24.15-.51.15-.82,0-.47-.1-.82-.29-1.05M32.19,37.47c.12.08.24.2.37.36v-.48h.59v3.46c0,.49-.07.86-.21,1.14-.26.51-.76.77-1.49.77-.41,0-.75-.09-1.03-.28-.28-.18-.43-.47-.47-.86h.65c.03.17.09.3.18.39.15.14.37.21.68.21.49,0,.81-.17.96-.52.09-.2.13-.57.12-1.09-.13.19-.28.34-.46.43-.18.09-.41.14-.71.14-.41,0-.77-.15-1.08-.44-.31-.29-.46-.78-.46-1.45,0-.64.15-1.13.46-1.49.31-.36.68-.54,1.12-.54.3,0,.55.07.78.22"/>
      <path class="cls-1" d="M36.69,38.91c-.03-.28-.09-.5-.18-.66-.17-.31-.46-.46-.87-.46-.29,0-.53.1-.73.32-.2.21-.3.48-.31.81h2.09ZM36.47,37.42c.25.13.44.29.57.49.13.19.21.42.25.67.04.17.06.45.06.84h-2.76c.01.39.1.7.27.93.17.23.43.35.79.35.33,0,.59-.11.79-.33.11-.13.19-.28.23-.44h.63c-.02.14-.07.3-.17.47s-.2.31-.31.42c-.19.19-.43.32-.71.38-.15.04-.33.05-.52.05-.47,0-.87-.17-1.2-.52-.33-.34-.49-.83-.49-1.44s.16-1.11.49-1.49c.33-.38.76-.57,1.29-.57.27,0,.53.06.78.19"/>
      <path class="cls-1" d="M38.18,37.32h.61v.66c.05-.13.17-.28.37-.47.19-.18.42-.27.67-.27h.06s.15.02.15.02v.67h-.1s-.11-.02-.11-.02c-.32,0-.57.1-.74.31-.17.21-.26.45-.26.72v2.19h-.64v-3.8Z"/>
      <rect class="cls-1" x="40.41" y="38.77" width="1.78" height=".66"/>
      <path class="cls-1" d="M43.38,39.93c.02.21.07.38.16.49.17.21.45.31.86.31.24,0,.45-.05.64-.16.18-.1.27-.26.27-.48,0-.16-.07-.29-.22-.37-.09-.05-.28-.11-.56-.18l-.51-.13c-.33-.08-.57-.17-.73-.27-.28-.17-.42-.41-.42-.72,0-.36.13-.65.39-.87.26-.22.62-.34,1.06-.34.58,0,1,.17,1.26.5.16.21.24.44.23.69h-.6c-.01-.14-.06-.27-.16-.39-.15-.17-.41-.25-.78-.25-.25,0-.44.05-.56.14-.13.09-.19.21-.19.36,0,.16.09.3.25.4.1.06.24.11.43.15l.43.1c.47.11.78.22.94.32.25.16.37.42.37.77s-.13.63-.39.87c-.26.25-.65.37-1.19.37-.57,0-.98-.13-1.22-.38-.24-.26-.37-.58-.38-.95h.61Z"/>
      <rect class="cls-1" x="46.47" y="38.77" width="1.78" height=".66"/>
      <path class="cls-1" d="M49.74,40.54c.14.11.29.16.48.16.23,0,.44-.05.65-.16.35-.17.53-.45.53-.85v-.51c-.08.05-.18.09-.3.12-.12.03-.24.06-.36.07l-.39.05c-.23.03-.4.08-.52.14-.19.11-.29.29-.29.53,0,.18.07.33.2.43M51.09,38.82c.15-.02.24-.08.29-.19.03-.06.05-.14.05-.25,0-.22-.08-.38-.23-.47-.16-.1-.38-.15-.66-.15-.34,0-.57.09-.71.27-.08.1-.13.25-.15.44h-.59c.01-.47.17-.8.45-.98.29-.18.63-.28,1.02-.28.45,0,.81.09,1.09.26.28.17.42.43.42.79v2.19l.04.16.17.06h.09s.11-.02.11-.02v.47l-.23.05h-.21c-.22.01-.38-.07-.48-.22-.05-.09-.09-.2-.11-.35-.13.17-.32.32-.56.44-.24.13-.51.19-.81.19-.35,0-.64-.11-.86-.32-.22-.21-.34-.48-.34-.8,0-.35.11-.62.33-.82.22-.19.51-.31.87-.36l1.02-.13Z"/>
      <rect class="cls-1" x="52.93" y="38.77" width="1.78" height=".66"/>
      <path class="cls-1" d="M55.89,39.93c.02.21.07.38.16.49.17.21.45.31.86.31.24,0,.45-.05.64-.16.18-.1.27-.26.27-.48,0-.16-.07-.29-.22-.37-.09-.05-.28-.11-.56-.18l-.51-.13c-.33-.08-.57-.17-.73-.27-.28-.17-.42-.41-.42-.72,0-.36.13-.65.39-.87.26-.22.62-.34,1.06-.34.58,0,1,.17,1.26.5.16.21.24.44.23.69h-.6c-.01-.14-.06-.27-.16-.39-.15-.17-.41-.25-.78-.25-.25,0-.44.05-.56.14-.13.09-.19.21-.19.36,0,.16.09.3.25.4.1.06.24.11.43.15l.43.1c.47.11.78.22.94.32.25.16.37.42.37.77s-.13.63-.39.87c-.26.25-.65.37-1.19.37-.57,0-.98-.13-1.22-.38-.24-.26-.37-.58-.38-.95h.61Z"/>
      <path class="cls-2" d="M35.56,24.22h-4.4v-6.3c0-.62-.05-1.11-.13-1.5-.09-.38-.25-.68-.47-.91-.2-.19-.41-.33-.66-.41-.24-.08-.5-.12-.78-.12-.75,0-1.32.22-1.71.67-.4.44-.6,1.08-.6,1.91v6.66h-4.4v-12.47h4.4v1.58c.6-.73,1.21-1.22,1.83-1.47.62-.25,1.34-.38,2.16-.38.88,0,1.63.14,2.25.42.63.29,1.15.69,1.59,1.2.36.42.6.89.73,1.41.13.52.19,1.11.19,1.78v7.93ZM19.83,7.92c-.13.3-.31.56-.54.79-.23.23-.49.4-.79.53-.3.13-.62.19-.96.19s-.66-.07-.96-.19c-.3-.13-.56-.31-.79-.53-.23-.23-.41-.49-.53-.79-.13-.3-.19-.62-.19-.96s.06-.66.19-.96c.13-.3.31-.56.53-.79.23-.23.49-.41.79-.54.3-.13.62-.19.96-.19s.66.06.96.19c.3.13.56.31.79.54.23.23.41.49.54.79.13.3.19.62.19.96s-.07.66-.19.96M19.76,24.22h-4.4v-12.47h4.4v12.47ZM10.96,28.7h28.7V0H10.96v28.7Z"/>
    </g>
  </g>
</svg>