<?xml version="1.0" encoding="UTF-8"?>
<svg id="Capa_2" xmlns="http://www.w3.org/2000/svg" version="1.1" viewBox="0 0 238.6 10.7">
  <!-- Generator: Adobe Illustrator 30.7.0, SVG Export Plug-In . SVG Version: 2.1.4 Build 11)  -->
  <defs>
    <style>
      .st0 {
        fill: #243866;
      }
    </style>
  </defs>
  <g id="Capa_1-2">
    <g>
      <g>
        <path class="st0" d="M94.9,1.3c.6.3,1,.7,1.3,1.2s.5,1.2.5,1.9-.1,1.3-.5,1.9c-.3.5-.8.9-1.3,1.2s-1.2.4-2,.4h-2.5V.9h2.5c.8,0,1.4.2,2,.4ZM94.6,6.2c.4-.4.6-1,.6-1.7s-.2-1.3-.6-1.7c-.4-.4-1-.6-1.7-.6h-1v4.7h1c.7,0,1.3-.2,1.7-.6h0Z"/>
        <path class="st0" d="M102.9,5.6h-4.1c0,.4.2.7.4,1s.6.4.9.4c.5,0,.9-.2,1.1-.7h1.5c-.2.5-.5,1-.9,1.3s-1,.5-1.7.5-1-.1-1.5-.4c-.4-.2-.8-.6-1-1-.2-.4-.4-.9-.4-1.5s.1-1.1.4-1.5.6-.8,1-1c.4-.2.9-.4,1.5-.4s1,.1,1.4.3.8.6,1,1c.2.4.4.9.4,1.5s0,.4,0,.6h0ZM101.5,4.6c0-.4-.1-.7-.4-.9-.3-.2-.6-.3-.9-.3s-.6.1-.9.3-.4.5-.4.9h2.7Z"/>
        <path class="st0" d="M106.2,2.5c.3-.2.7-.3,1.1-.3s.9.1,1.3.4c.4.2.7.6.9,1,.2.4.3.9.3,1.5s-.1,1.1-.3,1.5c-.2.4-.5.8-.9,1s-.8.4-1.3.4-.8,0-1.1-.2c-.3-.2-.6-.4-.8-.6v3.5h-1.4V2.3h1.4v.8c.2-.3.4-.5.8-.7h0ZM108.2,4.3c-.1-.2-.3-.4-.6-.6s-.5-.2-.7-.2-.5,0-.7.2c-.2.1-.4.3-.6.6-.1.2-.2.6-.2.9s0,.6.2.9c.1.2.3.4.6.6.2.1.5.2.7.2s.5,0,.7-.2c.2-.1.4-.3.6-.6s.2-.6.2-.9,0-.6-.2-.9h0Z"/>
        <path class="st0" d="M110.9,3.6c.2-.4.5-.8.9-1s.8-.4,1.3-.4.8,0,1.1.2c.3.2.6.4.8.6v-.8h1.4v5.6h-1.4v-.8c-.2.3-.4.5-.8.7s-.7.3-1.1.3-.9-.1-1.3-.4-.7-.6-.9-1-.3-1-.3-1.5.1-1.1.3-1.5ZM114.8,4.3c-.1-.2-.3-.4-.6-.6s-.5-.2-.7-.2-.5,0-.7.2-.4.3-.5.6c-.1.2-.2.5-.2.9s0,.6.2.9.3.4.6.6c.2.1.5.2.7.2s.5,0,.7-.2c.2-.1.4-.3.6-.6s.2-.5.2-.9,0-.6-.2-.9h0Z"/>
        <path class="st0" d="M120,2.5c.3-.2.6-.2,1-.2v1.5h-.4c-.4,0-.8.1-1,.3-.2.2-.3.6-.3,1.1v2.8h-1.4V2.3h1.4v.9c.2-.3.4-.5.7-.7h0Z"/>
        <path class="st0" d="M123.6,3.5v2.7c0,.2,0,.3.1.4s.2.1.5.1h.7v1.2h-.9c-1.2,0-1.8-.6-1.8-1.8v-2.7h-.7v-1.2h.7V.9h1.4v1.4h1.3v1.2h-1.3Z"/>
        <path class="st0" d="M125.8,3.6c.2-.4.5-.8.9-1s.8-.4,1.3-.4.8,0,1.1.2c.3.2.6.4.8.6v-.8h1.4v5.6h-1.4v-.8c-.2.3-.4.5-.8.7s-.7.3-1.1.3-.9-.1-1.3-.4-.7-.6-.9-1-.3-1-.3-1.5.1-1.1.3-1.5ZM129.7,4.3c-.1-.2-.3-.4-.6-.6s-.5-.2-.7-.2-.5,0-.7.2-.4.3-.5.6c-.1.2-.2.5-.2.9s0,.6.2.9.3.4.6.6c.2.1.5.2.7.2s.5,0,.7-.2c.2-.1.4-.3.6-.6s.2-.5.2-.9,0-.6-.2-.9h0Z"/>
        <path class="st0" d="M141.4,2.9c.4.4.6,1,.6,1.8v3.3h-1.4v-3.1c0-.4-.1-.8-.3-1-.2-.2-.5-.3-.9-.3s-.7.1-.9.3-.3.6-.3,1v3.1h-1.4v-3.1c0-.4-.1-.8-.3-1-.2-.2-.5-.3-.9-.3s-.7.1-.9.3-.3.6-.3,1v3.1h-1.4V2.3h1.4v.7c.2-.2.4-.4.7-.6.3-.1.6-.2.9-.2s.8,0,1.2.3c.4.2.6.4.8.8.2-.3.4-.6.8-.8.4-.2.7-.3,1.1-.3.7,0,1.2.2,1.7.6h0Z"/>
        <path class="st0" d="M148.6,5.6h-4.1c0,.4.2.7.4,1s.6.4.9.4c.5,0,.9-.2,1.1-.7h1.5c-.2.5-.5,1-.9,1.3s-1,.5-1.7.5-1-.1-1.5-.4c-.4-.2-.8-.6-1-1-.2-.4-.4-.9-.4-1.5s.1-1.1.4-1.5.6-.8,1-1c.4-.2.9-.4,1.5-.4s1,.1,1.4.3.8.6,1,1c.2.4.4.9.4,1.5s0,.4,0,.6h0ZM147.2,4.6c0-.4-.1-.7-.4-.9-.3-.2-.6-.3-.9-.3s-.6.1-.9.3-.4.5-.4.9h2.7Z"/>
        <path class="st0" d="M154.5,2.9c.4.4.6,1,.6,1.8v3.3h-1.4v-3.1c0-.4-.1-.8-.3-1s-.5-.4-.9-.4-.7.1-.9.4c-.2.2-.3.6-.3,1v3.1h-1.4V2.3h1.4v.7c.2-.2.4-.4.7-.6.3-.1.6-.2,1-.2.7,0,1.2.2,1.6.6h0Z"/>
        <path class="st0" d="M158.1,3.5v2.7c0,.2,0,.3.1.4s.2.1.5.1h.7v1.2h-.9c-1.2,0-1.8-.6-1.8-1.8v-2.7h-.7v-1.2h.7V.9h1.4v1.4h1.3v1.2h-1.3Z"/>
        <path class="st0" d="M161.4,7.7c-.4-.2-.8-.6-1-1-.2-.4-.4-.9-.4-1.5s.1-1.1.4-1.5c.2-.4.6-.8,1-1,.4-.2.9-.4,1.5-.4s1,.1,1.5.4c.4.2.8.6,1,1s.4.9.4,1.5-.1,1.1-.4,1.5c-.3.4-.6.8-1.1,1-.4.2-.9.4-1.5.4s-1-.1-1.5-.4h0ZM163.6,6.6c.2-.1.4-.3.5-.6.1-.2.2-.6.2-.9,0-.5-.1-.9-.4-1.2s-.6-.4-1-.4-.8.1-1,.4-.4.7-.4,1.2.1.9.4,1.2.6.4,1,.4.5,0,.7-.2h0Z"/>
        <path class="st0" d="M169.3,3.6c.2-.4.5-.8.9-1s.8-.4,1.3-.4.7,0,1.1.2.6.4.8.6V.4h1.4v7.5h-1.4v-.8c-.2.3-.4.5-.7.7s-.7.2-1.1.2-.9-.1-1.3-.4c-.4-.2-.7-.6-.9-1s-.3-1-.3-1.5.1-1.1.3-1.5h0ZM173.2,4.3c-.1-.2-.3-.4-.6-.6s-.5-.2-.7-.2-.5,0-.7.2-.4.3-.5.6c-.1.2-.2.5-.2.9s0,.6.2.9.3.4.6.6c.2.1.5.2.7.2s.5,0,.7-.2c.2-.1.4-.3.6-.6s.2-.5.2-.9,0-.6-.2-.9h0Z"/>
        <path class="st0" d="M181.4,5.6h-4.1c0,.4.2.7.4,1s.6.4.9.4c.5,0,.9-.2,1.1-.7h1.5c-.2.5-.5,1-.9,1.3s-1,.5-1.7.5-1-.1-1.5-.4c-.4-.2-.8-.6-1-1-.2-.4-.4-.9-.4-1.5s.1-1.1.4-1.5.6-.8,1-1c.4-.2.9-.4,1.5-.4s1,.1,1.4.3.8.6,1,1c.2.4.4.9.4,1.5s0,.4,0,.6h0ZM180,4.6c0-.4-.1-.7-.4-.9-.3-.2-.6-.3-.9-.3s-.6.1-.9.3-.4.5-.4.9h2.7Z"/>
        <path class="st0" d="M189.8,4.1c-.2.3-.5.6-.8.8-.4.2-.9.3-1.4.3h-1.2v2.7h-1.4V.9h2.6c.6,0,1,0,1.4.3.4.2.7.5.9.8.2.3.3.7.3,1.1s0,.7-.3,1.1h0ZM188.3,3.8c.2-.2.3-.4.3-.8,0-.7-.4-1-1.2-1h-1.1v2.1h1.1c.4,0,.7,0,.9-.3Z"/>
        <path class="st0" d="M196.4,2.3v5.6h-1.4v-.7c-.2.2-.4.4-.7.6-.3.1-.6.2-1,.2s-.8,0-1.2-.3-.6-.5-.8-.8-.3-.8-.3-1.3v-3.3h1.4v3.1c0,.4.1.8.3,1,.2.2.5.4.9.4s.7-.1.9-.4c.2-.2.3-.6.3-1v-3.1h1.4,0Z"/>
        <path class="st0" d="M200,2.5c.3-.2.7-.2,1.1-.2s.9.1,1.3.4c.4.2.7.6.9,1,.2.4.3.9.3,1.5s-.1,1.1-.3,1.5c-.2.4-.5.8-.9,1s-.8.4-1.3.4-.8,0-1.1-.2c-.3-.2-.6-.4-.8-.6v.8h-1.4V.4h1.4v2.7c.2-.3.4-.5.8-.7h0ZM202,4.3c-.1-.2-.3-.4-.6-.6s-.5-.2-.7-.2-.5,0-.7.2c-.2.1-.4.3-.6.6-.1.2-.2.6-.2.9s0,.6.2.9c.1.2.3.4.6.6.2.1.5.2.7.2s.5,0,.7-.2c.2-.1.4-.3.6-.6s.2-.6.2-.9,0-.6-.2-.9h0Z"/>
        <path class="st0" d="M206.1.4v7.5h-1.4V.4h1.4Z"/>
        <path class="st0" d="M207.6,1.4c-.2-.2-.2-.4-.2-.6s0-.4.2-.6c.2-.2.4-.2.6-.2s.5,0,.6.2.2.4.2.6,0,.4-.2.6-.4.2-.6.2-.5,0-.6-.2ZM209,2.3v5.6h-1.4V2.3s1.4,0,1.4,0Z"/>
        <path class="st0" d="M210.4,3.6c.2-.4.6-.8,1-1s.9-.4,1.4-.4,1.3.2,1.7.5c.5.3.8.8.9,1.5h-1.5c0-.2-.2-.4-.4-.6s-.4-.2-.7-.2-.7.2-1,.4-.4.7-.4,1.3.1.9.4,1.2.6.4,1,.4c.6,0,.9-.3,1.1-.8h1.5c-.2.6-.5,1.1-.9,1.5-.5.4-1,.5-1.7.5s-1-.1-1.4-.4-.8-.6-1-1-.4-.9-.4-1.5.1-1.1.4-1.5h0Z"/>
        <path class="st0" d="M216.6,1.4c-.2-.2-.2-.4-.2-.6s0-.4.2-.6c.2-.2.4-.2.6-.2s.5,0,.6.2.2.4.2.6,0,.4-.2.6-.4.2-.6.2-.5,0-.6-.2ZM217.9,2.3v5.6h-1.4V2.3s1.4,0,1.4,0Z"/>
        <path class="st0" d="M219.3,3.6c.2-.4.5-.8.9-1s.8-.4,1.3-.4.7,0,1,.2.6.4.8.6V.4h1.4v7.5h-1.4v-.8c-.2.3-.4.5-.7.7-.3.2-.7.2-1.1.2s-.9-.1-1.3-.4c-.4-.2-.7-.6-.9-1s-.3-1-.3-1.5.1-1.1.3-1.5h0ZM223.2,4.3c-.1-.2-.3-.4-.5-.6-.2-.1-.5-.2-.7-.2s-.5,0-.7.2c-.2.1-.4.3-.5.6-.1.2-.2.5-.2.9s0,.6.2.9.3.4.5.6c.2.1.5.2.7.2s.5,0,.7-.2c.2-.1.4-.3.5-.6.1-.2.2-.5.2-.9s0-.6-.2-.9h0Z"/>
        <path class="st0" d="M226.2,3.6c.2-.4.5-.8.9-1,.4-.2.8-.4,1.3-.4s.8,0,1.1.2c.3.2.6.4.8.6v-.8h1.4v5.6h-1.4v-.8c-.2.3-.4.5-.8.7s-.7.3-1.1.3-.9-.1-1.3-.4-.7-.6-.9-1c-.2-.4-.3-1-.3-1.5s.1-1.1.3-1.5h0ZM230.1,4.3c-.1-.2-.3-.4-.5-.6-.2-.1-.5-.2-.7-.2s-.5,0-.7.2-.4.3-.5.6c-.1.2-.2.5-.2.9s0,.6.2.9c.1.2.3.4.5.6.2.1.5.2.7.2s.5,0,.7-.2c.2-.1.4-.3.5-.6.1-.2.2-.5.2-.9s0-.6-.2-.9h0Z"/>
        <path class="st0" d="M233.1,3.6c.2-.4.5-.8.9-1,.4-.2.8-.4,1.3-.4s.7,0,1,.2.6.4.8.6V.4h1.4v7.5h-1.4v-.8c-.2.3-.4.5-.7.7-.3.2-.7.2-1.1.2s-.9-.1-1.3-.4c-.4-.2-.7-.6-.9-1-.2-.4-.3-1-.3-1.5s.1-1.1.3-1.5h0ZM237,4.3c-.1-.2-.3-.4-.5-.6-.2-.1-.5-.2-.7-.2s-.5,0-.7.2-.4.3-.5.6c-.1.2-.2.5-.2.9s0,.6.2.9c.1.2.3.4.5.6.2.1.5.2.7.2s.5,0,.7-.2c.2-.1.4-.3.5-.6.1-.2.2-.5.2-.9s0-.6-.2-.9h0Z"/>
      </g>
      <g>
        <g>
          <path class="st0" d="M51.4,3.9v2.4c-1.8-.6-2-3-.2-3.8.8-.4,1.8-.5,2.6,0V.3c-.5-.2-1.1-.3-1.7-.3-2.5,0-4.6,2-4.6,4.4,0,2.4,2.1,4.4,4.6,4.3.6,0,1.1-.1,1.7-.3V3.9h-2.4Z"/>
          <path class="st0" d="M65.4.1h-4v8.6h2.5V2.5h1.4c.2,0,.4.2.4.4,0,.2-.2.4-.4.4h-1.1v2.3h.6c.5,0,.9.4.9.8v2.3h2.5v-2.6c0,0,0-.1,0-.1,0-.6-.2-1.2-.7-1.6.4-.5.7-1.1.7-1.7,0-1.4-1.2-2.6-2.7-2.6,0,0,0,0,0,0Z"/>
        </g>
        <g>
          <path class="st0" d="M44.1,8.7h2.4V3.4c0-1.8-1.5-3.2-3.4-3.2-1.8,0-3.3,1.4-3.4,3.2v5.4h2.5V3.4c0-1.1,1.8-1.1,1.8,0v5.4h0Z"/>
          <path class="st0" d="M60.5,3.3h-2.5c-.5,0-.5-.8,0-.8h2.5V.1h-3.4c-1.3,0-2.4,1-2.4,2.2s.5,1.7,1.3,2c-.8.4-1.3,1.2-1.3,2,0,1.2,1.1,2.3,2.4,2.2h3.4v-2.3h-2.5c-.2,0-.4-.2-.4-.4s.2-.4.4-.4h2.5v-2.3h0Z"/>
          <path class="st0" d="M39,3.3h-2.5c-.5,0-.5-.8,0-.8h2.5V.2h-3.5c-1.3,0-2.3,1-2.3,2.2s.5,1.7,1.3,2c-.8.4-1.3,1.2-1.3,2,0,1.2,1.1,2.3,2.4,2.3h3.5v-2.3h-2.5c-.2,0-.4-.2-.4-.4,0-.2.2-.4.4-.4h2.5v-2.3h0Z"/>
          <path class="st0" d="M14.8,8.7h2.7v-2.6h1.3v2.5h2.7V3.4c0-1.8-1.5-3.2-3.4-3.2-1.8,0-3.3,1.4-3.4,3.2v5.4h0ZM17.4,3c0-.3.3-.7.7-.7s.7.3.7.7v.6h-1.3v-.6h0Z"/>
          <path class="st0" d="M30.5,8.8c-1.5,0-2.7-1.1-2.7-2.6V.2h2.7v5.4c0,.3.3.6.7.6h1.1v2.6h-1.8Z"/>
          <path class="st0" d="M25.1,8.8c-1.5,0-2.7-1.1-2.7-2.6V.2h2.7v5.4c0,.3.3.6.7.6h1.1v2.6h-1.8Z"/>
        </g>
        <polygon class="st0" points="11.4 .2 11.4 2.8 9.6 2.8 9.6 .2 7.2 .2 7.2 8.8 9.6 8.8 9.6 6.1 9.6 5.3 11.4 5.3 11.4 8.8 13.9 8.8 13.9 .2 11.4 .2"/>
        <path class="st0" d="M6.2.6c-.6-.2-1.2-.3-1.8-.3C2,.3,0,2.2,0,4.5,0,6.8,2,8.7,4.5,8.7s1.2-.1,1.8-.4v-2.5c-1.3,1.3-3.5.4-3.6-1.4,0-1.1.9-2,2.1-2s1.1.2,1.5.6V.6Z"/>
      </g>
      <circle class="st0" cx="80.7" cy="5" r="1.6"/>
    </g>
  </g>
</svg>